<svg width="100pt" height="100pt" version="1.1" viewBox="0 0 100 100" xmlns="http://www.w3.org/2000/svg">
 <path d="m72.16 33.07c-8.5781 0-23 14.422-23.641 15-3.9102 3.9297-15.41 14.18-21.52 14.18-7.2305 0-13.09-5.8594-13.09-13.09 0-7.2305 5.8594-13.09 13.09-13.09 3.5898 0 9.9102 3.7383 17.34 10.27 0.62109 0.55078 1.5742 0.49609 2.125-0.125 0.55078-0.62109 0.49609-1.5742-0.125-2.125-5.7188-5-13.719-11-19.32-11-5.7461 0-11.059 3.0664-13.934 8.0469-2.875 4.9766-2.875 11.109 0 16.09 2.875 4.9766 8.1875 8.043 13.934 8.043 8.5781 0 23-14.422 23.641-15 3.9219-3.9414 15.422-14.148 21.52-14.148 7.2305 0 13.09 5.8594 13.09 13.09 0 7.2266-5.8594 13.09-13.09 13.09-3.5703 0-9.8711-3.7188-17.27-10.211-0.625-0.55078-1.5781-0.49219-2.1289 0.12891-0.55469 0.625-0.49609 1.5781 0.12891 2.1328 5.6992 5 13.66 11 19.25 11 5.75 0 11.059-3.0664 13.934-8.0469 2.875-4.9766 2.875-11.113 0-16.09-2.875-4.9766-8.1836-8.043-13.934-8.043z"/>
</svg>
