<svg xmlns="http://www.w3.org/2000/svg" xmlns:xlink="http://www.w3.org/1999/xlink" version="1.1" x="0px" y="0px" viewBox="0 0 80 80" enable-background="new 0 0 80 80" xml:space="preserve" height="48px" width="48px"><g><g><path fill="#000000" d="M59,30H14c-1.654,0-3-1.346-3-3v-8c0-1.654,1.346-3,3-3h45c1.654,0,3,1.346,3,3v8    C62,28.654,60.654,30,59,30z M14,18c-0.552,0-1,0.449-1,1v8c0,0.551,0.448,1,1,1h45c0.552,0,1-0.449,1-1v-8c0-0.551-0.448-1-1-1    H14z"></path></g><g><rect x="16" y="22" fill="#000000" width="2" height="2"></rect></g><g><rect x="20" y="22" fill="#000000" width="2" height="2"></rect></g><g><rect x="24" y="22" fill="#000000" width="2" height="2"></rect></g></g><g><g><path fill="#000000" d="M59,46H14c-1.654,0-3-1.346-3-3v-8c0-1.654,1.346-3,3-3h45c1.654,0,3,1.346,3,3v8    C62,44.654,60.654,46,59,46z M14,34c-0.552,0-1,0.449-1,1v8c0,0.551,0.448,1,1,1h45c0.552,0,1-0.449,1-1v-8c0-0.551-0.448-1-1-1    H14z"></path></g><g><rect x="16" y="38" fill="#000000" width="2" height="2"></rect></g><g><rect x="20" y="38" fill="#000000" width="2" height="2"></rect></g><g><rect x="24" y="38" fill="#000000" width="2" height="2"></rect></g></g><g><g><path fill="#000000" d="M59,62H14c-1.654,0-3-1.346-3-3v-8c0-1.654,1.346-3,3-3h45c1.654,0,3,1.346,3,3v8    C62,60.654,60.654,62,59,62z M14,50c-0.552,0-1,0.449-1,1v8c0,0.551,0.448,1,1,1h45c0.552,0,1-0.449,1-1v-8c0-0.551-0.448-1-1-1    H14z"></path></g><g><rect x="16" y="54" fill="#000000" width="2" height="2"></rect></g><g><rect x="20" y="54" fill="#000000" width="2" height="2"></rect></g><g><rect x="24" y="54" fill="#000000" width="2" height="2"></rect></g></g><g><rect x="67" y="9" fill="#000000" width="2" height="59"></rect></g><g><rect x="61" y="22" fill="#000000" width="7" height="2"></rect></g><g><rect x="61" y="38" fill="#000000" width="7" height="2"></rect></g><g><rect x="61" y="54" fill="#000000" width="7" height="2"></rect></g><g><path fill="#000000" d="M68,26c-1.654,0-3-1.346-3-3s1.346-3,3-3s3,1.346,3,3S69.654,26,68,26z M68,22c-0.552,0-1,0.449-1,1   s0.448,1,1,1s1-0.449,1-1S68.552,22,68,22z"></path></g><g><path fill="#000000" d="M68,42c-1.654,0-3-1.346-3-3s1.346-3,3-3s3,1.346,3,3S69.654,42,68,42z M68,38c-0.552,0-1,0.449-1,1   s0.448,1,1,1s1-0.449,1-1S68.552,38,68,38z"></path></g><g><path fill="#000000" d="M68,58c-1.654,0-3-1.346-3-3s1.346-3,3-3s3,1.346,3,3S69.654,58,68,58z M68,54c-0.552,0-1,0.449-1,1   s0.448,1,1,1s1-0.449,1-1S68.552,54,68,54z"></path></g></svg>
