<svg xmlns="http://www.w3.org/2000/svg" xmlns:xlink="http://www.w3.org/1999/xlink" version="1.1" x="0px" y="0px" viewBox="0 0 100 100" style="enable-background:new 0 0 100 100;" xml:space="preserve"><style type="text/css">
  .st0{fill:#FFFFFF;}
</style><g><g><path d="M50,8.8c-20.3,0-36.7,16.5-36.7,36.7v39.4c0,3.4,2.8,6.2,6.2,6.2h61c3.4,0,6.2-2.8,6.2-6.2V45.6    C86.7,25.3,70.3,8.8,50,8.8z M84.7,84.9c0,2.3-1.9,4.2-4.2,4.2h-61c-2.3,0-4.2-1.9-4.2-4.2V45.6c0-19.2,15.6-34.7,34.7-34.7    s34.7,15.6,34.7,34.7V84.9z"></path><path d="M63.6,41.2h-5.2c-0.6,0-1,0.4-1,1v0.2c0,5.1,4.1,9.2,9.2,9.2c5.1,0,9.2-4.1,9.2-9.2v-0.2c0-0.6-0.4-1-1-1h-5.2H63.6z     M73.7,43.2c-0.4,3.6-3.5,6.3-7.1,6.3s-6.7-2.8-7.1-6.3h3.3c0.5,1.7,2,2.9,3.8,2.9c1.8,0,3.3-1.2,3.8-2.9H73.7z"></path><path d="M41.6,41.2h-5.2h-5.9h-5.2c-0.6,0-1,0.4-1,1v0.2c0,5.1,4.1,9.2,9.2,9.2c5.1,0,9.2-4.1,9.2-9.2v-0.2    C42.6,41.6,42.1,41.2,41.6,41.2z M33.4,49.5c-3.7,0-6.7-2.8-7.1-6.3h3.3c0.5,1.7,2,2.9,3.8,2.9c1.8,0,3.3-1.2,3.8-2.9h3.3    C40.1,46.8,37.1,49.5,33.4,49.5z"></path><path d="M56.3,56.6H43.7c-0.6,0-1,0.4-1,1s0.4,1,1,1h12.5c0.6,0,1-0.4,1-1S56.8,56.6,56.3,56.6z"></path><path d="M32,38h36c0.6,0,1-0.4,1-1s-0.4-1-1-1H32c-0.6,0-1,0.4-1,1S31.4,38,32,38z"></path><path d="M45.2,34h9.6c0.6,0,1-0.4,1-1s-0.4-1-1-1h-9.6c-0.6,0-1,0.4-1,1S44.6,34,45.2,34z"></path></g></g></svg>
