<svg xmlns="http://www.w3.org/2000/svg" xmlns:xlink="http://www.w3.org/1999/xlink" version="1.1" x="0px" y="0px" viewBox="0 0 100 100" style="enable-background:new 0 0 100 100;" xml:space="preserve"><g><path d="M71.829,16.016c2.293-3.169,1.691-7.713,1.662-7.923c-0.046-0.327-0.25-0.61-0.546-0.757   c-0.296-0.146-0.646-0.138-0.933,0.024c-0.97,0.543-4.224,1.837-6.835,2.842c1.326-2.674,2.009-5.53,2.047-5.691   c0.095-0.405-0.071-0.827-0.417-1.059c-0.345-0.231-0.798-0.226-1.138,0.016c-3.833,2.734-14.626,5.106-15.775,5.353   C29.686,8.879,13.262,25.337,13.262,45.559v39.385c0,3.438,2.797,6.236,6.235,6.236h61.005c3.438,0,6.235-2.797,6.235-6.236V45.559   C86.738,33.901,81.185,22.94,71.829,16.016z M84.738,84.943c0,2.335-1.9,4.236-4.235,4.236H19.498c-2.335,0-4.235-1.9-4.235-4.236   V45.559c0-19.154,15.583-34.738,34.738-34.738c0.069,0,0.137-0.007,0.205-0.021c0.428-0.089,9.158-1.932,14.383-4.425   c-0.551,1.619-1.425,3.737-2.589,5.178c-0.283,0.351-0.297,0.847-0.034,1.212c0.263,0.366,0.737,0.511,1.161,0.353   c0.271-0.101,5.595-2.085,8.454-3.341c-0.01,1.579-0.306,4.123-1.918,5.704c-0.213,0.208-0.321,0.501-0.296,0.798   c0.025,0.297,0.181,0.567,0.426,0.737c9.359,6.502,14.947,17.173,14.947,28.543V84.943z"></path><path d="M29.772,29.25c-1.792,0-3.25,1.458-3.25,3.25s1.458,3.25,3.25,3.25s3.25-1.458,3.25-3.25S31.564,29.25,29.772,29.25z    M29.772,33.75c-0.689,0-1.25-0.561-1.25-1.25s0.561-1.25,1.25-1.25s1.25,0.561,1.25,1.25S30.461,33.75,29.772,33.75z"></path><path d="M67.522,32.5c0,2.665,2.168,4.833,4.833,4.833s4.833-2.168,4.833-4.833s-2.168-4.833-4.833-4.833   S67.522,29.835,67.522,32.5z M75.188,32.5c0,1.563-1.271,2.833-2.833,2.833c-1.563,0-2.833-1.271-2.833-2.833   s1.271-2.833,2.833-2.833C73.917,29.667,75.188,30.938,75.188,32.5z"></path><path d="M62.704,32.75H38.297c-1.698,0-3.079,1.381-3.079,3.078v43.426c0,4.179,3.4,7.578,7.579,7.578h15.407   c4.179,0,7.578-3.4,7.578-7.578V35.828C65.782,34.131,64.401,32.75,62.704,32.75z M63.782,79.255c0,0.578-0.088,1.135-0.251,1.66   c-0.706,2.27-2.824,3.919-5.327,3.919H42.797c-1.977,0-3.705-1.036-4.695-2.587c-0.118-0.185-0.219-0.381-0.315-0.58   c-0.118-0.244-0.236-0.489-0.318-0.752c-0.163-0.524-0.251-1.081-0.251-1.659v-0.898c6.789-0.914,16.807-1.623,26.564,0.031V79.255   z M63.782,38.088c0,1.843-1.494,3.338-3.338,3.338c-1.745,0-3.161-1.344-3.309-3.051c-0.148,1.707-1.564,3.051-3.309,3.051h0   c-1.745,0-3.161-1.344-3.309-3.051c-0.148,1.707-1.563,3.051-3.309,3.051s-3.161-1.344-3.309-3.051   c-0.148,1.707-1.563,3.051-3.309,3.051c-1.843,0-3.338-1.494-3.338-3.338v-2.443c0.09-0.504,0.511-0.894,1.041-0.894h24.407   c0.596,0,1.078,0.483,1.078,1.078V38.088z"></path></g></svg>
