<svg xmlns="http://www.w3.org/2000/svg" xmlns:xlink="http://www.w3.org/1999/xlink" version="1.1" x="0px" y="0px" viewBox="0 0 100 100" style="enable-background:new 0 0 100 100;" xml:space="preserve"><style type="text/css">
  .st0{fill:#FFFFFF;}
</style><g><g><path d="M50,8.8c-20.3,0-36.7,16.5-36.7,36.7v39.4c0,3.4,2.8,6.2,6.2,6.2h61c3.4,0,6.2-2.8,6.2-6.2V45.6    C86.7,25.3,70.3,8.8,50,8.8z M84.7,84.9c0,2.3-1.9,4.2-4.2,4.2h-61c-2.3,0-4.2-1.9-4.2-4.2V45.6c0-19.2,15.6-34.7,34.7-34.7    s34.7,15.6,34.7,34.7V84.9z"></path><circle cx="32" cy="49.5" r="2.3"></circle><circle cx="66.8" cy="49.5" r="2.3"></circle><path d="M53.9,66h-8.7c-0.6,0-1,0.4-1,1s0.4,1,1,1h8.7c0.6,0,1-0.4,1-1S54.4,66,53.9,66z"></path></g></g></svg>
