<svg xmlns="http://www.w3.org/2000/svg" xmlns:xlink="http://www.w3.org/1999/xlink" version="1.1" x="0px" y="0px" viewBox="0 0 100 100" style="enable-background:new 0 0 100 100;" xml:space="preserve"><g><g><path d="M50,8.8c-20.3,0-36.7,16.5-36.7,36.7v39.4c0,3.4,2.8,6.2,6.2,6.2h61c3.4,0,6.2-2.8,6.2-6.2V45.6    C86.7,25.3,70.3,8.8,50,8.8z M84.7,84.9c0,2.3-1.9,4.2-4.2,4.2h-61c-2.3,0-4.2-1.9-4.2-4.2V45.6c0-19.2,15.6-34.7,34.7-34.7    s34.7,15.6,34.7,34.7V84.9z"></path><path d="M29.7,29.8c-2.3,0-4.1,1.8-4.1,4.1c0,2.3,1.8,4.1,4.1,4.1c2.3,0,4.1-1.8,4.1-4.1C33.8,31.6,31.9,29.8,29.7,29.8z M29.7,36    c-1.2,0-2.1-0.9-2.1-2.1c0-1.2,0.9-2.1,2.1-2.1c1.2,0,2.1,0.9,2.1,2.1C31.8,35.1,30.8,36,29.7,36z"></path><path d="M74.5,33.9c0-2.3-1.8-4.1-4.1-4.1c-2.3,0-4.1,1.8-4.1,4.1c0,2.3,1.8,4.1,4.1,4.1C72.7,38,74.5,36.2,74.5,33.9z M70.4,36    c-1.2,0-2.1-0.9-2.1-2.1c0-1.2,0.9-2.1,2.1-2.1c1.2,0,2.1,0.9,2.1,2.1C72.5,35.1,71.6,36,70.4,36z"></path><path d="M44.1,23.7v-3.6c0-0.6-0.4-1-1-1s-1,0.4-1,1v3.6c0,0.9-0.8,1.7-1.7,1.7c-0.9,0-1.7-0.8-1.7-1.7v-3.6c0-0.6-0.4-1-1-1    s-1,0.4-1,1v3.6c0,2,1.7,3.7,3.7,3.7S44.1,25.8,44.1,23.7z"></path><path d="M73.2,58.9V50c0-0.6-0.4-1-1-1s-1,0.4-1,1v8.9c0,2.4,2,4.4,4.4,4.4c2.4,0,4.4-2,4.4-4.4V50c0-0.6-0.4-1-1-1s-1,0.4-1,1    v8.9c0,1.3-1.1,2.4-2.4,2.4S73.2,60.2,73.2,58.9z"></path><path d="M26.4,59.7c-0.6,0-1,0.4-1,1v6.2c0,1-0.8,1.8-1.8,1.8s-1.8-0.8-1.8-1.8v-6.2c0-0.6-0.4-1-1-1s-1,0.4-1,1v6.2    c0,2.1,1.7,3.8,3.8,3.8s3.8-1.7,3.8-3.8v-6.2C27.4,60.1,26.9,59.7,26.4,59.7z"></path><path d="M50,41.9c-5.2,0-9.4,4.2-9.4,9.4c0,0.6,0.4,1,1,1s1-0.4,1-1c0-4.1,3.3-7.4,7.4-7.4s7.4,3.3,7.4,7.4c0,0.6,0.4,1,1,1    s1-0.4,1-1C59.4,46.1,55.2,41.9,50,41.9z"></path></g></g></svg>
