<svg xmlns="http://www.w3.org/2000/svg" xmlns:xlink="http://www.w3.org/1999/xlink" version="1.1" x="0px" y="0px" viewBox="0 0 100 100" style="enable-background:new 0 0 100 100;" xml:space="preserve"><g><path d="M50,8.821c-20.257,0-36.738,16.48-36.738,36.738v39.385c0,3.438,2.797,6.236,6.235,6.236h61.005   c3.438,0,6.235-2.797,6.235-6.236V45.559C86.738,25.301,70.257,8.821,50,8.821z M84.738,84.943c0,2.335-1.9,4.236-4.235,4.236   H19.498c-2.335,0-4.235-1.9-4.235-4.236V45.559c0-19.154,15.583-34.738,34.738-34.738s34.738,15.583,34.738,34.738V84.943z"></path><path d="M65.772,35.398v-1.188h2.37c0.552,0,1-0.448,1-1s-0.448-1-1-1h-3.37h-6.625H57.06h-6.625h-1.087h-6.625h-1.087h-6.625   h-3.37c-0.552,0-1,0.448-1,1s0.448,1,1,1h2.37v1.188c0,2.378,1.935,4.313,4.313,4.313c1.696,0,3.152-0.993,3.856-2.42   c0.704,1.427,2.16,2.42,3.856,2.42s3.152-0.993,3.856-2.42c0.704,1.427,2.16,2.42,3.856,2.42s3.152-0.993,3.856-2.42   c0.704,1.427,2.16,2.42,3.856,2.42C63.837,39.711,65.772,37.776,65.772,35.398z M40.636,35.398c0,1.275-1.038,2.313-2.313,2.313   s-2.313-1.038-2.313-2.313v-1.188h4.625V35.398z M48.348,35.398c0,1.275-1.038,2.313-2.313,2.313s-2.313-1.038-2.313-2.313v-1.188   h4.625V35.398z M56.06,35.398c0,1.275-1.038,2.313-2.313,2.313s-2.313-1.038-2.313-2.313v-1.188h4.625V35.398z M63.772,35.398   c0,1.275-1.038,2.313-2.313,2.313s-2.313-1.038-2.313-2.313v-1.188h4.625V35.398z"></path><path d="M71.194,28.133c0,1.622,1.315,2.937,2.937,2.937s2.937-1.315,2.937-2.937s-1.315-2.937-2.937-2.937   S71.194,26.511,71.194,28.133z M75.108,26.044c0.511,0,0.926,0.584,0.926,1.305s-0.414,1.305-0.926,1.305s-0.926-0.584-0.926-1.305   S74.597,26.044,75.108,26.044z"></path><path d="M28.806,28.133c0-1.622-1.315-2.937-2.937-2.937s-2.937,1.315-2.937,2.937s1.315,2.937,2.937,2.937   S28.806,29.755,28.806,28.133z M26.847,26.044c0.511,0,0.926,0.584,0.926,1.305s-0.414,1.305-0.926,1.305   c-0.511,0-0.925-0.584-0.925-1.305S26.336,26.044,26.847,26.044z"></path><path d="M36.182,71.429c-0.552,0-1,0.448-1,1v4.201c0,2.573-2.094,4.667-4.667,4.667s-4.667-2.093-4.667-4.667v-4.201   c0-0.552-0.448-1-1-1s-1,0.448-1,1v4.201c0,3.676,2.991,6.667,6.667,6.667c3.676,0,6.667-2.991,6.667-6.667v-4.201   C37.182,71.876,36.734,71.429,36.182,71.429z"></path><path d="M74.935,71.429c-0.552,0-1,0.448-1,1v4.201c0,2.573-2.093,4.667-4.667,4.667s-4.667-2.093-4.667-4.667v-4.201   c0-0.552-0.448-1-1-1s-1,0.448-1,1v4.201c0,3.676,2.991,6.667,6.667,6.667s6.667-2.991,6.667-6.667v-4.201   C75.935,71.876,75.487,71.429,74.935,71.429z"></path></g></svg>
