<svg xmlns="http://www.w3.org/2000/svg" xmlns:xlink="http://www.w3.org/1999/xlink" version="1.1" x="0px" y="0px" viewBox="0 0 100 100" style="enable-background:new 0 0 100 100;" xml:space="preserve"><style type="text/css">
  .st0{fill:#FFFFFF;}
</style><g><path d="M80.5,91.2h-61c-3.4,0-6.2-2.8-6.2-6.2V45.6C13.3,25.3,29.7,8.8,50,8.8s36.7,16.5,36.7,36.7v39.4   C86.7,88.4,83.9,91.2,80.5,91.2z M50,10.8c-19.2,0-34.7,15.6-34.7,34.7v39.4c0,2.3,1.9,4.2,4.2,4.2h61c2.3,0,4.2-1.9,4.2-4.2V45.6   C84.7,26.4,69.2,10.8,50,10.8z"></path><g><path d="M71.2,33.6l-2.5-2.5c0,0,0,0,0,0L58.5,20.9c-0.4-0.4-1-0.4-1.4,0s-0.4,1,0,1.4l2.3,2.3c-1.6,1.2-2.6,3-2.6,5.1    c0,3.4,2.8,6.3,6.3,6.3c2.1,0,3.9-1,5.1-2.6l1.6,1.6c0.2,0.2,0.5,0.3,0.7,0.3s0.5-0.1,0.7-0.3C71.6,34.6,71.6,34,71.2,33.6z     M66.1,32.8c-0.7-1-1.9-1.7-3.2-1.7c-1.2,0-2.3,0.6-3,1.4c-0.6-0.7-1.1-1.7-1.1-2.8c0-1.5,0.8-2.9,2.1-3.6l5.8,5.8    C66.5,32.3,66.3,32.5,66.1,32.8z"></path><path d="M42.9,20.9c-0.4-0.4-1-0.4-1.4,0L31.4,31c0,0,0,0,0,0l-2.5,2.5c-0.4,0.4-0.4,1,0,1.4c0.2,0.2,0.5,0.3,0.7,0.3    s0.5-0.1,0.7-0.3l1.6-1.6c1.2,1.6,3,2.6,5.1,2.6c3.4,0,6.3-2.8,6.3-6.3c0-2.1-1-3.9-2.6-5.1l2.3-2.3C43.3,22,43.3,21.3,42.9,20.9z     M41.2,29.8c0,1.1-0.4,2-1.1,2.8c-0.7-0.9-1.8-1.4-3-1.4c-1.3,0-2.5,0.7-3.2,1.7c-0.3-0.2-0.5-0.5-0.7-0.8l5.8-5.8    C40.4,26.9,41.2,28.3,41.2,29.8z"></path><path d="M51.2,39.9c-4.3,0-7.8,3.5-7.8,7.8c0,0.6,0.4,1,1,1s1-0.4,1-1c0-3.2,2.6-5.8,5.8-5.8s5.8,2.6,5.8,5.8c0,0.6,0.4,1,1,1    s1-0.4,1-1C59,43.4,55.5,39.9,51.2,39.9z"></path></g></g></svg>
