<?xml version="1.0" encoding="UTF-8"?>
<svg width="100pt" height="100pt" version="1.1" viewBox="0 0 100 100" xmlns="http://www.w3.org/2000/svg">
    <g>
        <path d="m71 66.898v-4.1016h2c2.1992 0 4-1.8008 4-4v-9.7969c0-2.1992-1.8008-4-4-4h-1.8984l4.3984-14.199 0.10156-0.39844c0.30078-2.3984 0-7.1992-4.1992-11.398-6.1992-6.1992-18-8.5-35-6.8008-3.6992 0.39844-6.1992 1.6992-7.3984 4-1.3008 2.5-0.69922 5.1992-0.10156 6.6992-6 4.6016-7 10.398-3.1992 17.699l2.3008 4.3984h-1.0039c-2.1992 0-4 1.8008-4 4v9.8008c0 2.1992 1.8008 4 4 4h2v4.1016c0 4.8008 2.8984 9 7 10.898v0.10156 8c0 1.1016 0.89844 2 2 2s2-0.89844 2-2v-7.1016c0.39844 0 0.69922 0.10156 1.1016 0.10156h17.898c0.39844 0 0.69922 0 1.1016-0.10156v7.1992c0 1.1016 0.89844 2 2 2 1.1016 0 2-0.89844 2-2v-8-0.10156c4-1.8984 6.8984-6.0977 6.8984-11zm2-17.898v9.8008h-2v-9.8008zm-44 9.8008h-2v-9.8008h2zm38-9.8008v17.902c0 4.3984-3.6016 8.1016-8.1016 8.1016l-17.797-0.003906c-4.3984 0-8.1016-3.6016-8.1016-8.1016v-28.797c0-4.3984 3.6016-8.1016 8.1016-8.1016h17.898c4.3984 0 8.1016 3.6016 8.1016 8.1016v10.898zm-8.1016-23h-17.797c-6.7031 0-12.102 5.5-12.102 12.102v0.39844c-3.1992-6.1992-2-10.102 4.1016-13.801 0.89844-0.60156 1.3008-1.8008 0.69922-2.6992-0.30078-0.5-0.89844-0.89844-1.3984-0.89844-0.30078-0.80078-0.5-2 0-3 0.69922-1.3008 2.6992-1.8008 4.3008-1.8984 19.699-2 28.199 2 31.801 5.6016 2.8984 3 3.1992 6.1992 3 8l-1.2031 4.1953c-1.6992-4.6016-6.1992-8-11.402-8z"/>
        <path d="m46 61h5c1.1016 0 2-0.89844 2-2s-0.89844-2-2-2h-1v-13h-12c-1.1016 0-2 0.89844-2 2s0.89844 2 2 2h8z"/>
        <path d="m61 44h-6c-1.1016 0-2 0.89844-2 2s0.89844 2 2 2h6c1.1016 0 2-0.89844 2-2s-0.89844-2-2-2z"/>
        <path d="m53.5 64h-7c-1.1016 0-2 0.89844-2 2s0.89844 2 2 2h7c1.1016 0 2-0.89844 2-2s-0.89844-2-2-2z"/>
    </g>
</svg>
